<?xml version="1.0" encoding="utf-8" ?>
<svg xmlns="http://www.w3.org/2000/svg" xmlns:xlink="http://www.w3.org/1999/xlink" width="300" height="168">
	<path d="M173.113 41.3552C183.003 40.4429 193.655 42.4206 201.849 48.2588C203.934 49.7442 209.58 54.4488 209.969 56.7714C209.62 57.4217 208.886 57.8251 208.307 58.2594C205.178 60.6067 202.187 63.0935 199.663 66.1006C194.019 72.8231 191.853 82.0889 192.606 90.7096C193.544 100.68 198.735 109.762 206.849 115.631C209.182 117.337 212.115 118.447 214.274 120.278L214.328 120.324C214.348 120.372 214.371 120.419 214.387 120.468C214.783 121.641 211.519 128.525 210.894 129.852C207.251 137.478 202.651 144.609 197.204 151.071C188.401 161.652 180.621 165.005 167.076 160.181C162.302 158.48 157.66 156.647 152.546 156.325C146.413 155.939 141.15 157.575 135.441 159.629C132.685 160.746 129.9 161.752 126.958 162.255C121.452 163.196 116.795 162.16 112.247 158.922C107.805 155.761 104.089 151.43 100.801 147.123C91.1013 134.421 83.8616 119.474 81.2227 103.614C78.6243 87.9978 79.5522 71.5227 89.0495 58.2764C98.8439 44.6156 115.715 38.3327 131.845 43.3494C135.765 44.5685 144.543 48.4717 148.084 48.5059C151.539 48.5392 161.055 44.5815 164.891 43.3478C167.584 42.5001 170.331 41.8344 173.113 41.3552Z"/>
	<path d="M179.565 3.3756C180.071 3.36073 180.291 3.27614 180.708 3.57872C180.841 3.93264 180.937 4.29362 180.974 4.67045C181.775 12.6356 177.979 21.6817 172.995 27.7498C168.507 33.2156 162.26 38.3893 155.255 40.0894C153.032 40.6289 150.61 40.748 148.332 40.9738C147.867 40.6049 147.66 40.3852 147.566 39.7676C146.463 32.4998 150.047 24.0488 154.231 18.2933C160.466 9.71572 169.193 5.01567 179.565 3.3756Z"/>
</svg>
