<?xml version="1.0" encoding="utf-8" ?>
<svg xmlns="http://www.w3.org/2000/svg" xmlns:xlink="http://www.w3.org/1999/xlink" width="1024" height="1024">
	<path fill="#131313" d="M247.632 358.212C283.171 357.335 317.714 364.287 345.445 387.941C365.402 404.965 376.157 429.715 378.088 455.612C369.363 456.504 360.013 455.966 351.216 456.119C340.36 456.308 329.203 457.158 318.378 456.53C317.261 449.609 316.159 442.728 313.137 436.331C307.688 424.8 296.654 417.914 284.987 413.791C267.974 407.777 247.06 407.32 230.564 415.247C211.581 424.37 198.334 439.677 191.381 459.51C182.533 484.747 183.618 524.315 195.268 548.315C203.546 565.368 218.985 578.211 236.77 584.239C252.871 589.696 273.067 589.673 288.466 582.007C308.411 572.076 318.042 554.023 324.763 533.755C304.154 532.901 283.497 533.1 262.875 532.78C263.082 518.125 262.981 503.468 262.572 488.817L274.625 488.835C295.049 488.814 315.471 488.558 335.889 488.068C348.601 487.739 364.228 486.137 376.661 487.823C378.647 495.377 377.67 517.304 377.759 525.945C377.883 538.036 378.411 550.174 378.42 562.25C378.436 584.878 378.025 607.4 379.08 630.032C363.057 631.181 346.877 630.732 330.822 631.518L331.006 602.831C329.963 604.186 328.905 605.528 327.829 606.858C313.276 624.758 292.042 634.229 269.374 636.523C236.814 639.818 201.846 631.943 176.362 610.904C148.243 587.689 132.564 552.393 129.068 516.556C125.243 477.345 132.688 433.453 158.444 402.438C182.314 373.695 211.204 361.687 247.632 358.212Z"/>
	<path fill="#131313" d="M680.658 432.76C680.719 432.756 680.781 432.739 680.842 432.75C697.918 435.727 713.309 438.694 726.11 451.359C736.014 461.157 741.844 473.741 744.799 487.259C749.43 508.448 747.301 531.435 747.192 553.034L747.174 630.525C729.166 629.949 711.147 629.786 693.132 630.036C692.606 599.394 693.245 568.68 693.131 538.029C693.093 527.744 694.526 511.025 691.969 501.569C690.21 495.063 685.137 488.722 679.312 485.456C669.822 480.134 655.66 479.753 645.391 482.582C634.42 485.603 627.391 491.948 621.804 501.653C620.565 504.247 619.936 506.507 619.696 509.37C619.193 515.366 619.495 521.504 619.511 527.522L619.541 556.409C619.552 581.08 618.955 605.716 619.071 630.385C609.996 629.845 600.796 630.182 591.706 630.197C583.041 630.211 574.104 629.671 565.505 630.931C565.075 567.115 564.453 503.208 565.075 439.395C582.815 440.27 600.59 440.138 618.315 438.999C617.868 448.962 618.288 459.064 618.413 469.04C621.185 463.455 624.447 458.352 628.629 453.701C643.545 437.11 659.52 433.802 680.658 432.76Z"/>
	<path fill="#131313" d="M791.892 386.008C809.821 386.14 827.702 386.599 845.634 386.2C844.815 403.665 847.28 421.579 845.598 438.977C860.448 438.897 875.364 438.734 890.209 439.086C889.224 452.389 889.973 466.234 889.972 479.588C875.29 480.558 860.216 479.904 845.493 479.861C845.223 501.131 845.141 522.404 845.246 543.676C845.235 554.226 844.165 565.844 845.863 576.196C846.331 579.045 847.417 581.565 849.373 583.718C857.505 592.667 877.949 587.618 888.874 588.026C889.07 588.033 889.266 588.044 889.462 588.054C888.35 597.728 887.744 607.401 887.281 617.126C886.996 621.366 886.665 625.602 886.288 629.835C873.821 632.193 861.905 634.049 849.175 634.094C833.109 634.151 816.359 631.866 804.486 619.917C798.552 613.926 794.523 606.313 792.904 598.037C790.708 587.233 792.021 569.265 792.027 557.784L792.003 479.577C780.681 479.626 769.36 479.762 758.04 479.985C757.928 466.157 757.924 452.277 757.293 438.461C768.848 438.819 780.41 438.957 791.971 438.876L791.892 386.008Z"/>
	<path fill="#131313" d="M404.203 362.008C423.124 361.869 442.483 362.968 461.35 361.791C460.397 370.001 461.611 378.518 461.545 386.79C461.406 404.038 460.678 421.326 460.506 438.593L459.912 630.617C441.564 630.472 423.214 630.614 404.87 631.044C405.489 622.373 405.102 613.372 405.103 604.67L405.077 556.576L404.751 445.634C404.505 417.781 403.788 389.855 404.203 362.008Z"/>
	<path fill="#131313" d="M538.613 438.849L538.906 438.872C539.163 439.145 539.519 439.35 539.677 439.69C540.601 441.683 539.938 463.538 539.938 467.21L540.046 576.006L540.098 610.597C540.114 617.183 539.799 623.924 540.461 630.473C522.569 629.059 503.782 630.029 485.885 631.001L484.767 630.694C484.154 624.906 484.525 618.728 484.503 612.891L484.309 579.395L483.973 439.466C502.204 440.393 520.404 439.899 538.613 438.849Z"/>
	<path fill="#131313" d="M537.99 361.838L539.376 362.153C540.737 364.532 539.2 403.474 539.426 409.989L484.473 409.978L483.673 409.692C482.899 405.865 483.501 400.752 483.504 396.77C483.514 385.315 483.981 373.437 483.02 362.033C501.25 362.062 519.793 362.721 537.99 361.838Z"/>
</svg>
