<?xml version="1.0" encoding="utf-8" ?>
<svg xmlns="http://www.w3.org/2000/svg" xmlns:xlink="http://www.w3.org/1999/xlink" width="800" height="800">
	<path d="M282.933 405.907C286.596 405.835 300.305 401.303 304.834 400.049L353.37 386.914L613.084 316.537L686.484 296.642C697.581 293.649 708.722 290.218 719.912 287.629C721.805 287.191 724.199 286.665 726.058 287.408L726.2 288.112C725.082 289.581 723.506 290.436 721.863 291.226C713.176 295.402 704.066 298.946 695.22 302.794C677.532 310.608 659.803 318.328 642.033 325.954L465.905 402.256C463.284 403.393 460.634 404.491 458.042 405.693L451.312 408.536L451.017 408.582C446.443 410.881 441.604 412.773 436.894 414.781L435.452 415.321L432.372 416.717L430.066 417.74L326.925 462.149C309.608 469.675 292.249 477.105 274.849 484.437C245.756 496.763 215.14 510.557 183.274 512.982C158.631 514.857 134.32 508.747 115.391 492.305C103.648 482.105 97.8045 469.511 96.8474 454.058C93.7143 403.466 145.522 333.045 177.352 296.972C165.875 316.429 156.919 350.142 162.198 372.074C165.763 386.886 174.436 399.312 187.52 407.229C205.509 418.114 228.962 419.876 249.126 414.98L250.303 414.757C251.655 414.431 253.003 414.092 254.349 413.742L255.618 413.434L267.599 410.249L269.24 409.718L273.101 408.77L274.534 408.407C276.973 407.656 279.497 407.086 281.969 406.444L282.933 405.907ZM402.48 423.737L402.029 423.099C401.737 424.116 401.461 425.082 401.926 426.122C402.35 427.073 402.948 427.225 403.828 427.591L404.487 427.313C404.189 425.941 402.908 425.201 402.48 423.737Z"/>
	<path fill="#2D2D2D" d="M430.066 417.74C430.224 412.889 429.016 397.832 431.724 394.492C432.416 393.638 432.884 393.575 433.932 393.503C434.706 393.858 435.346 394.181 435.952 394.794C437.461 396.32 437.122 398.338 437.105 400.318C440.604 400.427 444.466 399.81 447.877 400.199C449.138 400.343 450.204 400.817 450.938 401.915C452.179 403.769 451.591 406.468 451.312 408.536L451.017 408.582C446.443 410.881 441.604 412.773 436.894 414.781L435.452 415.321L432.372 416.717L430.066 417.74Z"/>
	<path d="M432.372 416.717C431.548 414.316 431.542 398.569 432.175 396.074C433.033 395.433 433.123 395.311 434.179 395.272C435.77 396.859 435.342 399.851 435.36 401.966C439.778 402.491 445.729 400.79 449.718 402.635C449.833 402.925 450.01 403.317 450.028 403.626C450.059 404.15 449.948 404.824 449.563 405.201C447.238 407.476 438.558 406.325 435.402 406.233C435.471 409.26 435.44 412.294 435.452 415.321L432.372 416.717Z"/>
	<path d="M436.958 407.669C441.515 408.231 446.592 407.548 451.017 408.582C446.443 410.881 441.604 412.773 436.894 414.781C436.803 412.405 436.881 410.044 436.958 407.669Z"/>
	<path d="M273.101 408.77C273.662 412.652 272.881 418.816 270.555 421.98C268.758 424.425 265.973 426.186 262.961 426.637C260.135 427.061 257.458 426.263 255.229 424.499C251.922 421.883 251.667 418.44 250.303 414.757C251.655 414.431 253.003 414.092 254.349 413.742L255.618 413.434L267.599 410.249L269.24 409.718L273.101 408.77Z"/>
	<path d="M255.618 413.434L267.599 410.249C268.2 412.868 268.081 415.877 266.631 418.196C265.921 419.33 264.768 420.428 263.416 420.715C261.682 421.083 260.26 420.488 258.894 419.456C256.569 417.699 256.682 415.864 255.618 413.434Z"/>
	<path fill="#2D2D2D" d="M267.599 410.249L269.24 409.718C269.723 413.11 269.778 416.824 267.525 419.635C266.229 421.28 264.289 422.29 262.197 422.406C260.204 422.519 258.257 421.778 256.843 420.368C255.473 418.978 254.281 416.254 254.309 414.28C254.311 414.1 254.335 413.921 254.349 413.742L255.618 413.434C256.682 415.864 256.569 417.699 258.894 419.456C260.26 420.488 261.682 421.083 263.416 420.715C264.768 420.428 265.921 419.33 266.631 418.196C268.081 415.877 268.2 412.868 267.599 410.249Z"/>
	<path fill="#2D2D2D" d="M282.933 405.907C282.937 406.15 282.945 406.394 282.947 406.637C282.98 410.931 280.779 423.713 283.303 426.777C284.437 426.906 284.458 426.664 285.373 425.951C288.629 418.638 280.345 409.8 292.11 405.105C293.007 404.747 293.862 404.432 294.821 404.711C294.722 405.676 293.721 406.349 292.977 406.947C291.559 408.085 289.678 408.806 288.024 409.546L287.94 410.12C287.297 414.676 288.833 423.618 286.741 427.275C285.699 428.003 284.428 428.43 283.154 428.04C282.122 427.724 281.435 426.87 281.042 425.905C279.652 422.491 279.975 410.581 281.588 407.164C281.704 406.918 281.836 406.681 281.969 406.444L282.933 405.907Z"/>
	<defs>
		<linearGradient id="gradient_0" gradientUnits="userSpaceOnUse" x1="272.52002" y1="421.0322" x2="251.18854" y2="412.20117">
			<stop offset="0" stop-color="#282829"/>
			<stop offset="1" stop-color="#3E3F3B"/>
		</linearGradient>
	</defs>
	<path fill="url(#gradient_0)" d="M274.534 408.407C275.564 412.574 274.906 418.578 272.744 422.3C271.161 425.026 268.631 426.865 265.585 427.647C262.101 428.541 258.241 428.114 255.206 426.119C251.732 423.834 249.985 420.131 249.289 416.141C249.222 415.756 249.175 415.368 249.126 414.98L250.303 414.757C251.667 418.44 251.922 421.883 255.229 424.499C257.458 426.263 260.135 427.061 262.961 426.637C265.973 426.186 268.758 424.425 270.555 421.98C272.881 418.816 273.662 412.652 273.101 408.77L274.534 408.407Z"/>
	<path fill="#2D2D2D" d="M458.042 405.693C458.198 404.597 458.432 402.446 459.073 401.584C459.655 400.802 460.382 400.359 461.345 400.289C463.238 400.152 464.548 401.063 465.905 402.256C463.284 403.393 460.634 404.491 458.042 405.693Z"/>
	<path fill="#2D2D2D" d="M370.006 400.49C373.867 400.163 376.238 401.02 379.692 402.541C381.682 401.389 383.35 400.58 385.677 400.357C388.438 400.093 390.989 400.842 393.061 402.717C396.116 405.481 397.197 409.538 397.364 413.521C397.497 416.684 398.083 426.32 395.844 428.38C395.234 428.94 393.485 429.065 392.72 428.906C387.638 427.85 392.072 412.833 388.94 408.936C388.261 408.09 387.372 407.71 386.307 407.644C385.236 407.578 384.498 407.685 383.758 408.419C383.088 412.129 383.451 416.11 383.455 419.87C383.404 421.661 383.539 423.858 383.01 425.57C382.615 426.847 381.509 427.865 380.302 428.406C379.396 428.813 378.94 428.703 378.079 428.313C374.515 424.02 377.442 415.698 375.801 410.492C375.378 409.15 374.858 408.46 373.595 407.801C372.51 407.683 371.437 407.718 370.49 408.357C366.977 410.727 368.978 420.861 368.3 424.818C368.053 426.261 367.63 427.177 366.396 428.043C365.169 428.363 364.463 428.273 363.239 427.976C362.803 427.65 362.469 427.357 362.234 426.852C360.474 423.07 360.984 411.561 362.538 407.648C364.046 403.852 366.32 402.006 370.006 400.49Z"/>
	<path d="M379.423 404.747C381.471 403.44 383.377 402.281 385.815 401.896C387.768 401.588 389.742 401.869 391.331 403.116C393.843 405.086 394.809 408.52 395.188 411.549C395.538 414.346 396.204 425.049 394.692 426.936L393.592 427.01C389.757 424.65 392.848 413.27 390.759 408.609C390.282 407.545 389.518 406.561 388.35 406.223C386.302 405.63 383.939 406.549 382.186 407.545C382.045 407.625 381.907 407.709 381.768 407.79C381.477 411.226 381.517 414.624 381.565 418.066C381.627 420.166 381.847 422.472 381.549 424.549C381.38 425.728 380.992 426.337 380.033 427.003C377.146 425.173 378.484 412.866 376.666 407.956L376.459 407.403L372.596 406.159C371.29 406.515 369.828 406.794 368.808 407.747C364.192 412.057 368.89 423.28 365.741 426.715C364.828 426.853 364.732 426.801 363.889 426.407C363.708 425.862 363.657 425.759 363.541 425.24C362.456 420.389 362.841 409.207 365.611 405.125C367.073 402.971 368.628 402.502 371.099 402.037C374.448 401.934 376.601 403.16 379.423 404.747Z"/>
	<path fill="#2D2D2D" d="M311.423 400.105C312.966 400.158 314.559 400.264 316.054 400.672C319.794 401.694 321.772 405.18 323.427 408.372C320.658 410.892 316.703 416.832 313.156 417.721C312.123 417.979 311.346 417.902 310.431 417.338C309.623 416.839 308.928 415.848 308.839 414.905C308.607 412.439 312.396 409.116 313.841 407.148C313.056 407.335 312.268 407.53 311.498 407.773C309.533 408.394 308.193 409.755 307.336 411.614C306.59 413.233 306.466 414.993 307.131 416.662C307.968 418.764 309.491 419.978 311.499 420.884C315.222 420.914 318.966 420.693 322.687 420.564C323.617 421.348 324.779 422.186 325.237 423.358C325.586 424.253 325.661 425.34 325.194 426.21C324.552 427.404 323.298 428.036 322.04 428.372C317.706 429.527 310.09 428.868 306.242 426.68C303.207 424.954 301.099 422.123 300.239 418.745C299.094 414.248 300.146 408.368 302.711 404.453C304.654 401.486 308.216 400.824 311.423 400.105Z"/>
	<path d="M312.717 402.095C313.856 402.148 315.011 402.218 316.11 402.544C317.722 403.022 319.797 404.251 320.513 405.842C320.895 406.692 320.849 407.529 320.473 408.386C319.946 409.585 313.494 416.1 312.452 416.551C311.391 416.355 311.445 416.27 310.788 415.395C310.276 411.865 313.941 411.012 315.478 408.334C315.893 407.611 315.787 407.462 315.543 406.727C315.052 406.432 314.621 406.202 314.04 406.137C311.716 405.88 309.214 406.863 307.455 408.345C305.856 409.693 304.699 411.599 304.643 413.73C304.573 416.386 306.243 419.729 308.064 421.58C312.611 423.352 318.331 421.169 322.489 423.262C323.398 423.72 323.588 424.057 323.831 425.009C322.931 426.166 321.9 426.54 320.457 426.732C315.936 427.334 309.544 427.01 305.837 424.153C303.101 422.045 301.507 418.856 301.212 415.439C300.922 412.076 301.887 408.654 304.132 406.101C306.547 403.355 309.206 402.398 312.717 402.095Z"/>
	<path fill="#2D2D2D" d="M339.554 400.508C342.068 400.253 344.35 400.25 346.738 401.198C349.958 402.476 352.328 405.229 353.647 408.376C355.434 412.636 356.286 422.414 354.259 426.69C353.613 428.053 352.417 428.561 351.066 429.007C345.94 427.854 350.152 413.85 345.765 409.267C344.788 408.246 343.36 407.482 341.909 407.602C340.267 407.737 339.136 408.63 338.044 409.774C337.945 409.878 337.848 409.985 337.75 410.09C337.137 410.996 336.634 411.788 336.392 412.869C335.791 415.563 337.368 417.779 338.69 419.964C340.661 420.656 343.999 420.685 345.22 422.636C345.857 423.655 345.654 424.944 345.23 426.002C344.827 427.009 344.116 427.867 343.084 428.275C341.212 429.015 338.93 428.307 337.213 427.472C333.745 425.787 331.275 422.89 330.117 419.217C328.786 415.088 329.196 410.595 331.25 406.775C333.079 403.397 336.021 401.644 339.554 400.508Z"/>
	<path d="M340.07 402.008C342.952 401.841 346.015 402.252 348.444 403.924C351.03 405.704 352.398 408.649 352.932 411.667C353.459 414.648 354.284 424.308 352.771 426.402C351.693 426.825 351.433 426.713 350.276 426.499C348.906 424.734 349.557 414.226 349.449 411.447C347.874 409.085 346.104 406.626 343.096 406.115C340.956 405.751 339.01 406.573 337.34 407.838C336.826 408.466 336.348 409.11 335.933 409.809C334.845 411.639 333.982 414.562 334.607 416.688C335.9 421.086 340.307 421.629 343.723 423.52C343.689 424.786 343.861 425.457 343.11 426.502C341.108 426.933 339.373 426.835 337.51 425.906C334.769 424.538 332.713 421.535 331.765 418.692C330.586 415.154 330.837 410.977 332.61 407.674C334.311 404.505 336.696 402.987 340.07 402.008Z"/>
	<path fill="#2D2D2D" d="M460.872 373.135C462.828 372.987 464.824 373.099 466.785 373.131C468.18 373.989 469.661 374.845 470.86 375.968C473.433 378.377 475.158 381.753 475.278 385.296C475.419 389.439 473.527 392.38 470.76 395.203C471.884 391.029 472.747 387.635 472.551 383.3C471.882 382.106 471.161 381.02 470.218 380.019C468.332 378.019 465.735 376.618 462.949 376.563C459.706 376.499 457.381 378.115 455.094 380.217C453.674 384.808 453.756 387.029 455.898 391.358C457.139 392.098 458.534 392.923 459.917 393.349C461.521 393.843 463.492 393.822 464.971 392.962C466.324 392.176 467.228 390.8 467.584 389.292C467.966 387.674 467.754 385.855 466.809 384.463C466.097 383.415 465.065 382.66 463.765 382.546C462.033 382.394 460.774 383.415 459.496 384.424C459.402 385.539 459.349 386.53 459.774 387.59C460.223 388.713 460.742 389.25 461.845 389.699C462.46 389.455 462.897 389.331 463.323 388.793C463.7 388.317 462.757 387.798 462.618 386.987L463.203 386.408C464.322 386.244 464.387 386.242 465.385 386.769L465.513 387.6C465.025 388.964 464.504 390.481 463.209 391.302C462.415 391.804 461.465 391.844 460.593 391.528C459.032 390.96 457.876 389.534 457.15 388.094C456.016 385.845 456.715 384.037 457.486 381.81C457.797 381.541 458.112 381.277 458.431 381.017C460.131 379.639 461.986 378.624 464.243 378.945C467.152 379.359 468.929 381.726 470.616 383.884C470.716 385.349 470.895 386.904 470.777 388.369C470.579 390.828 469.185 393.439 467.202 394.906C463.812 397.414 459.611 396.836 455.717 396.294C453.166 394.241 451.351 391.933 450.486 388.72C449.584 385.389 450.069 381.835 451.829 378.867C453.963 375.348 457.041 373.995 460.872 373.135Z"/>
	<path fill="#2D2D2D" d="M414.831 401.418C418.052 400.57 420.854 400.2 424.202 400.308C425.176 401.784 426.327 403.061 425.897 404.932C425.717 405.717 425.127 406.341 424.445 406.753C422.391 407.996 419.505 408.091 417.22 408.828C417.254 411.777 418.057 420.07 416.126 422.212C415.603 422.793 415.468 422.925 414.682 423.032C414.515 422.192 414.567 421.625 414.724 420.804C415.449 417.025 414.797 410.175 416.249 407.829C418.485 406.677 423.42 406.409 424.662 404.268C424.581 403.183 424.457 403.07 423.786 402.196C421.456 401.347 418.04 402.262 415.727 402.913C412.598 405.916 411.9 408.373 411.831 412.693C411.788 415.354 412.334 419.365 410.111 421.354C407.946 423.291 404.947 421.557 402.48 423.737L402.029 423.099C402.452 422.121 402.679 421.513 403.701 421.048C405.543 420.211 408.438 421.45 409.511 419.381C412.611 413.405 406.761 410.137 414.831 401.418Z"/>
	<path fill="#2D2D2D" fill-opacity="0.98823529" d="M402.029 423.099L402.48 423.737C402.908 425.201 404.189 425.941 404.487 427.313L403.828 427.591C402.948 427.225 402.35 427.073 401.926 426.122C401.461 425.082 401.737 424.116 402.029 423.099Z"/>
</svg>
